# xmcd CD database file generated by OrangeCD 4.3
#
# Track frame offsets:
#	150
#	16978
#	30369
#	47882
#	59528
#	74696
#	91816
#	105921
#	113194
#	128215
#	131873
#	150560
#	173765
#	187176
#	207099
#
# Disc length: 2936 seconds
#
# Revision: 0
# Processed by: cddbd v1.4PL0 Copyright (c) Steve Scherf et al.
# Submitted via: OrangeCD 4.3
#
DISCID=ce0b760f
DTITLE=WestSide Cartel III - One More Time
DYEAR=2002
DGENRE=
TTITLE0=Why Did U Leave Me
TTITLE1=Loungin'
TTITLE2=Whateva's Cleva
TTITLE3=Legit Riders
TTITLE4=Dont Trust No Bitch
TTITLE5=Something For The Players
TTITLE6=Nice Day
TTITLE7=Str8 Up Representing
TTITLE8=2 My Bitches
TTITLE9=187, Pt. 2
TTITLE10=Riding
TTITLE11=Questions
TTITLE12=Tha Drink
TTITLE13=Damnest Things
TTITLE14=They Luv Me
EXTD=
EXTT0=
EXTT1=
EXTT2=
EXTT3=
EXTT4=
EXTT5=
EXTT6=
EXTT7=
EXTT8=
EXTT9=
EXTT10=
EXTT11=
EXTT12=
EXTT13=
EXTT14=
PLAYORDER=
